<svg xmlns="http://www.w3.org/2000/svg" xmlns:xlink="http://www.w3.org/1999/xlink" xmlns:inkscape="http://www.inkscape.org/namespaces/inkscape" version="1.1" width="425.2" height="425.2" viewBox="0 0 425.2 425.2" role="img">
<title>Bee illustration</title>
<path transform="matrix(.1,0,0,-.1,0,425.2)" d="M592.75 832.141C600.629 829.668 608.52 827.199 616.41 824.73 628.949 820.809 640.188 820.441 650.215 823.051 1011.08 265.109 2019.11 47.3984 2788.99 257.68 3659.64 495.469 4203.81 1280 4004.44 2009.96 3894.89 2411.05 3583.64 2712.2 3181 2862.71 3178.33 3012.63 3210.75 3304.87 3466.99 3531.67 3486.87 3515.69 3512.11 3506.13 3539.6 3506.13 3603.68 3506.13 3655.62 3558.07 3655.62 3622.15 3655.62 3686.22 3603.68 3738.16 3539.6 3738.16 3475.52 3738.16 3423.58 3686.22 3423.58 3622.15 3423.58 3589.19 3437.33 3559.44 3459.4 3538.32 3203.38 3311.1 3168.93 3019.25 3170.97 2866.42 3026.96 2919.16 2871.46 2952.71 2709.46 2964.79 2737.84 3111.77 2809.46 3289.98 2978.59 3439.68 2998.47 3423.71 3023.72 3414.14 3051.2 3414.14 3115.28 3414.14 3167.22 3466.08 3167.22 3530.16 3167.22 3594.23 3115.28 3646.18 3051.2 3646.18 2987.13 3646.18 2935.19 3594.23 2935.19 3530.16 2935.19 3497.2 2948.93 3467.45 2971 3446.33 2800.12 3294.66 2727.94 3114.21 2699.45 2965.51 2508.4 2978.69 2308.48 2962.02 2107.84 2911.77 2106.87 2911.53 2105.9 2911.29 2104.94 2911.05 2103.65 2910.72 2102.37 2910.4 2101.08 2910.07 2098.48 2909.41 2095.88 2908.75 2093.28 2908.08 2091.96 2907.74 2090.64 2907.4 2089.33 2907.06 2087.9 2906.68 2086.46 2906.3 2085.03 2905.93 2083.13 2905.43 2081.25 2904.93 2079.35 2904.43 2078.28 2904.14 2077.2 2903.85 2076.13 2903.57 2073.17 2902.77 2070.21 2901.97 2067.25 2901.16L2067 2901.1C2063.33 2900.09 2059.66 2899.08 2056 2898.06L2055.57 2897.94C2051.98 2896.93 2048.38 2895.92 2044.79 2894.89L2044.58 2894.83C1999.97 2882.08 1955.43 2867.69 1911.11 2851.74 2098.52 3061.67 2344.91 3549.27 2385.54 3669.79 2439.46 3829.74 2353.52 4003.11 2193.57 4057.04 2033.62 4110.96 1860.25 4025.01 1806.33 3865.07 1772.19 3763.81 1696.78 3368.48 1686.6 3078.29 1526.63 3319.95 1259.82 3614.78 1178.58 3683.05 1049.36 3791.64 856.57 3774.91 747.984 3645.68 639.395 3516.45 656.129 3323.67 785.352 3215.08 889.613 3127.47 1414.15 2803.05 1669.94 2748.86 1015.6 2425.59 468.977 1789.5 517.461 1208.8 423.227 1167.51 351.836 1172.15 264.223 1149.21 247.535 1144.84 231.227 1137.59 221.762 1121.94 123.715 959.738 523.48 853.852 592.75 832.141" fill="#b1dcd1"/>
<path transform="matrix(.1,0,0,-.1,0,425.2)" d="M4004.44 2009.96C3894.89 2411.05 3583.64 2712.2 3181 2862.71 3182.07 2802.93 3188.71 2765.77 3188.96 2764.42 3189.48 2761.71 3187.7 2759.09 3184.99 2758.57L3184.04 2758.48C3181.69 2758.48 3179.6 2760.15 3179.14 2762.55 3178.87 2763.95 3171.82 2803.35 3170.97 2866.42 3026.96 2919.16 2871.46 2952.71 2709.46 2964.79 2677.7 2800.3 2700.09 2674.94 2700.57 2672.42 2701.08 2669.71 2699.3 2667.1 2696.59 2666.58L2695.64 2666.49C2693.29 2666.49 2691.2 2668.16 2690.74 2670.55 2690.26 2673.09 2667.63 2799.5 2699.45 2965.51 2535.12 2976.85 2364.23 2966 2191.98 2930.81L2192.02 2930.89C2159.14 2924.18 2126.22 2916.58 2093.28 2908.08 2091.96 2907.74 2090.64 2907.4 2089.33 2907.06 2087.9 2906.68 2086.46 2906.3 2085.03 2905.93 2083.13 2905.43 2081.25 2904.93 2079.35 2904.43 2078.28 2904.14 2077.2 2903.85 2076.13 2903.57 2073.17 2902.77 2070.21 2901.97 2067.25 2901.16L2067 2901.1C2063.33 2900.09 2059.66 2899.08 2056 2898.06L2055.57 2897.94C2051.98 2896.93 2048.38 2895.92 2044.79 2894.89L2044.58 2894.83C1999.96 2882.08 1955.41 2867.66 1911.07 2851.69 1867.46 2802.85 1827.05 2769.05 1793.16 2758.41 1775.08 2742.26 1743.75 2738.13 1702.99 2743.21 1692.57 2744.5 1681.53 2746.41 1669.94 2748.86 1015.6 2425.59 468.977 1789.5 517.461 1208.8 423.227 1167.51 351.836 1172.15 264.223 1149.21 247.535 1144.84 231.227 1137.59 221.762 1121.94 123.715 959.738 523.48 853.852 592.75 832.141 600.629 829.668 608.52 827.199 616.41 824.73 628.949 820.809 640.188 820.441 650.215 823.051 780.199 622.078 994.156 465.27 1250.7 356.699L1250.84 356.641C1259.81 352.84 1268.83 349.109 1277.91 345.43L1278.29 345.281C1281.13 344.121 1283.98 342.98 1286.84 341.828L1287.43 341.602C1293.47 339.191 1299.53 336.801 1305.61 334.449L1305.69 334.41C1308.66 333.262 1311.63 332.121 1314.6 330.98L1315.1 330.789C1324.3 327.281 1333.55 323.82 1342.85 320.43L1342.91 320.41C1651.68 207.609 2011.3 160.48 2357.05 185.418L2357.08 185.391C2494.64 195.309 2629.98 216.68 2759.08 249.84L2758.89 249.988C2768.93 252.559 2779.04 254.961 2788.99 257.68 3659.64 495.469 4203.81 1280 4004.44 2009.96" fill="#f5d571"/>
<path transform="matrix(.1,0,0,-.1,0,425.2)" d="M517.461 1208.8C423.227 1167.51 351.836 1172.15 264.223 1149.21 247.535 1144.84 231.227 1137.59 221.762 1121.94 123.715 959.738 523.48 853.852 592.75 832.141 600.629 829.668 608.52 827.199 616.41 824.73 628.949 820.809 640.188 820.441 650.215 823.051 602.984 896.07 566.84 974.922 543.766 1059.4 530.32 1108.62 521.66 1158.5 517.461 1208.8" fill="#110e33"/>
<path transform="matrix(.1,0,0,-.1,0,425.2)" d="M1311.31 988.449C1112.61 1498.93 1134.22 2046.19 1296.17 2521.69 1081.8 2364.9 894.273 2176.76 756.656 1974.65 718.262 1635.86 753.137 1281.7 884.719 943.672 968.168 729.27 1084.45 536.941 1223.79 368.328 1414.4 284.141 1629.92 227.199 1852.76 199.141 1622.95 412.262 1432.51 677.07 1311.31 988.449" fill="#110e33"/>
<path transform="matrix(.1,0,0,-.1,0,425.2)" d="M1793.16 2758.41C1775.08 2742.26 1743.75 2738.13 1702.99 2743.21 1503.45 2242.26 1460.56 1646.87 1675.54 1094.55 1820.61 721.871 2064.83 415.871 2357.08 185.391 2494.64 195.309 2629.98 216.68 2759.08 249.84 2477.73 477.93 2243.12 777.141 2102.14 1139.32 1866.3 1745.2 1940.83 2402.89 2192.02 2930.89 2159.14 2924.18 2126.22 2916.58 2093.28 2908.08 2091.96 2907.74 2090.64 2907.4 2089.33 2907.06 2087.9 2906.68 2086.46 2906.3 2085.03 2905.93 2083.13 2905.43 2081.25 2904.93 2079.35 2904.43 2078.28 2904.14 2077.2 2903.85 2076.13 2903.57 2073.17 2902.77 2070.21 2901.97 2067.25 2901.16L2067 2901.1C2063.33 2900.09 2059.66 2899.08 2056 2898.06L2055.57 2897.94C2051.98 2896.93 2048.38 2895.92 2044.79 2894.89L2044.58 2894.83C1999.96 2882.08 1955.41 2867.66 1911.07 2851.69 1867.46 2802.85 1827.05 2769.05 1793.16 2758.41" fill="#110e33"/>
<path transform="matrix(.1,0,0,-.1,0,425.2)" d="M2690.74 2670.55C2691.2 2668.16 2693.29 2666.49 2695.64 2666.49L2696.59 2666.58C2699.3 2667.1 2701.08 2669.71 2700.57 2672.42 2700.09 2674.94 2677.7 2800.3 2709.46 2964.79 2737.84 3111.77 2809.46 3289.98 2978.59 3439.68 2998.47 3423.71 3023.72 3414.14 3051.2 3414.14 3115.28 3414.14 3167.22 3466.08 3167.22 3530.16 3167.22 3594.23 3115.28 3646.18 3051.2 3646.18 2987.13 3646.18 2935.19 3594.23 2935.19 3530.16 2935.19 3497.2 2948.93 3467.45 2971 3446.33 2800.12 3294.66 2727.94 3114.21 2699.45 2965.51 2667.63 2799.5 2690.26 2673.09 2690.74 2670.55" fill="#110e33"/>
<path transform="matrix(.1,0,0,-.1,0,425.2)" d="M3184.04 2758.48 3184.99 2758.57C3187.7 2759.09 3189.48 2761.71 3188.96 2764.42 3188.71 2765.77 3182.07 2802.93 3181 2862.71 3178.33 3012.63 3210.75 3304.87 3466.99 3531.67 3486.87 3515.69 3512.11 3506.13 3539.6 3506.13 3603.68 3506.13 3655.62 3558.07 3655.62 3622.15 3655.62 3686.22 3603.68 3738.16 3539.6 3738.16 3475.52 3738.16 3423.58 3686.22 3423.58 3622.15 3423.58 3589.19 3437.33 3559.44 3459.4 3538.32 3203.38 3311.1 3168.93 3019.25 3170.97 2866.42 3171.82 2803.35 3178.87 2763.95 3179.14 2762.55 3179.6 2760.15 3181.69 2758.48 3184.04 2758.48" fill="#110e33"/>
<path transform="matrix(.1,0,0,-.1,0,425.2)" d="M2628.78 1975.19C2522 1957.97 2449.37 1857.59 2466.56 1750.98 2483.75 1644.37 2584.25 1571.91 2691.04 1589.13 2797.82 1606.35 2870.45 1706.73 2853.26 1813.34 2836.07 1919.95 2735.57 1992.41 2628.78 1975.19" fill="#110e33"/>
<path transform="matrix(.1,0,0,-.1,0,425.2)" d="M2417.09 1597.31C2331.31 1583.48 2270.5 1518.15 2281.26 1451.39 2292.03 1384.63 2370.3 1341.72 2456.08 1355.56 2541.87 1369.39 2602.68 1434.72 2591.91 1501.48 2581.15 1568.24 2502.88 1611.15 2417.09 1597.31" fill="#f04b42"/>
<path transform="matrix(.1,0,0,-.1,0,425.2)" d="M3722.74 1949.96C3705.55 2056.57 3605.05 2129.03 3498.27 2111.81 3391.48 2094.59 3318.85 1994.21 3336.04 1887.6 3353.24 1780.99 3453.74 1708.53 3560.52 1725.75 3667.3 1742.97 3739.94 1843.35 3722.74 1949.96" fill="#110e33"/>
<path transform="matrix(.1,0,0,-.1,0,425.2)" d="M3818 1819.64C3732.22 1805.81 3671.41 1740.47 3682.17 1673.71 3692.94 1606.95 3771.21 1564.05 3856.99 1577.88 3942.77 1591.71 4003.59 1657.05 3992.82 1723.81 3982.06 1790.57 3903.79 1833.47 3818 1819.64" fill="#f04b42"/>
<path transform="matrix(.1,0,0,-.1,0,425.2)" d="M3205.99 1708.63C3200.54 1707.75 3196.83 1702.62 3197.71 1697.17 3204.28 1656.42 3181.5 1618.74 3146.95 1613.16 3112.26 1607.59 3078.92 1636.21 3072.35 1676.95 3071.47 1682.4 3066.31 1686.14 3060.89 1685.23 3055.44 1684.35 3051.73 1679.22 3052.61 1673.77 3060.21 1626.62 3097.34 1592.47 3138.35 1592.47 3142.25 1592.47 3146.19 1592.78 3150.14 1593.42 3195.58 1600.75 3225.78 1648.72 3217.45 1700.35 3216.57 1705.8 3211.45 1709.53 3205.99 1708.63" fill="#110e33"/>
<path transform="matrix(.1,0,0,-.1,0,425.2)" d="M1793.16 2758.41C1779.44 2754.09 1766.78 2753.58 1755.42 2757.41 1696.72 2777.2 1680.7 2910.08 1686.6 3078.29 1526.63 3319.95 1259.82 3614.78 1178.58 3683.05 1049.36 3791.64 856.57 3774.91 747.984 3645.68 639.395 3516.45 656.129 3323.67 785.352 3215.08 889.613 3127.47 1414.15 2803.05 1669.94 2748.86 1681.53 2746.41 1692.57 2744.5 1702.99 2743.21 1743.75 2738.13 1775.08 2742.26 1793.16 2758.41" fill="#bee1d9"/>
<path transform="matrix(.1,0,0,-.1,0,425.2)" d="M2239.53 2579.4C2282.47 2544.31 2371.58 2582.29 2438.55 2664.24 2505.53 2746.18 2525.02 2841.07 2482.08 2876.16 2439.14 2911.26 2350.03 2873.28 2283.05 2791.33 2216.07 2709.38 2196.59 2614.5 2239.53 2579.4" fill="#fee48f"/>
<path transform="matrix(.1,0,0,-.1,0,425.2)" d="M2223.84 2496.77C2169.5 2507.84 2108.31 2432.75 2087.18 2329.05 2066.04 2225.34 2092.96 2132.29 2147.3 2121.22 2201.65 2110.15 2262.83 2185.24 2283.96 2288.95 2305.1 2392.65 2278.18 2485.7 2223.84 2496.77" fill="#fee48f"/>
<path transform="matrix(.1,0,0,-.1,0,425.2)" d="M2339.09 2482.18C2324.98 2412.94 2371.17 2345.06 2442.25 2330.58 2513.33 2316.09 2582.38 2360.48 2596.49 2429.72 2610.61 2498.96 2564.42 2566.84 2493.34 2581.32 2422.27 2595.81 2353.2 2551.42 2339.09 2482.18" fill="#fee48f"/>
</svg>
